<svg width="130" height="155" viewBox="0 0 130 155" fill="none" xmlns="http://www.w3.org/2000/svg">
<mask id="mask0_5_2" style="mask-type:luminance" maskUnits="userSpaceOnUse" x="0" y="63" width="91" height="92">
<path d="M0 63.3802H90.6667V155H0V63.3802Z" fill="white"/>
</mask>
<g mask="url(#mask0_5_2)">
<path d="M0.135376 64.5573C0.135376 114.479 40.6041 154.953 90.526 154.953V142.042C47.7343 142.042 13.0468 107.349 13.0468 64.5573H0.135376Z" fill="#009848"/>
</g>
<mask id="mask1_5_2" style="mask-type:luminance" maskUnits="userSpaceOnUse" x="25" y="0" width="66" height="131">
<path d="M25.3333 0H90.6666V130.047H25.3333V0Z" fill="white"/>
</mask>
<g mask="url(#mask1_5_2)">
<path d="M90.526 12.9167C61.9948 12.9167 38.875 36.0417 38.875 64.5625C38.875 93.0886 61.9948 116.214 90.526 116.214V129.13C54.8645 129.13 25.9635 100.219 25.9635 64.5573C25.9635 28.901 54.8645 0 90.526 0V12.9167Z" fill="#009848"/>
</g>
<path d="M116.349 64.5625C116.349 50.3021 104.792 38.7396 90.5261 38.7396C76.2552 38.7396 64.698 50.3021 64.698 64.5625C64.698 78.8281 76.2552 90.3906 90.5261 90.3906V103.302C69.125 103.302 51.7865 85.9583 51.7865 64.5573C51.7865 43.1667 69.125 25.8281 90.5261 25.8281C111.927 25.8281 129.26 43.1667 129.26 64.5573L116.349 64.5625Z" fill="#009848"/>
</svg>
